<?xml version="1.0" standalone="no"?>
<!DOCTYPE svg PUBLIC "-//W3C//DTD SVG 20010904//EN"
 "http://www.w3.org/TR/2001/REC-SVG-20010904/DTD/svg10.dtd">
<svg version="1.0" xmlns="http://www.w3.org/2000/svg"
 width="3200.000000pt" height="600.000000pt" viewBox="0 0 3200.000000 600.000000"
 preserveAspectRatio="xMidYMid meet">
<metadata>
Created by potrace 1.15, written by Peter Selinger 2001-2017
</metadata>
<g transform="translate(0.000000,600.000000) scale(0.100000,-0.100000)"
fill="#ffffff" stroke="none">
<path d="M1729 5256 c-55 -17 -137 -77 -154 -113 -19 -39 -19 -64 0 -110 13
-30 15 -140 14 -782 0 -728 -8 -1093 -28 -1376 -18 -239 -40 -429 -61 -530 -6
-27 -14 -63 -17 -80 -8 -38 -46 -106 -66 -119 -10 -7 -26 -7 -44 -1 -39 14
-94 128 -122 253 -11 53 -26 117 -31 140 -18 78 -31 244 -28 359 l3 112 -30
31 c-47 50 -119 82 -255 115 -196 47 -394 66 -475 46 -86 -22 -147 -79 -160
-152 -6 -36 4 -96 29 -169 8 -25 20 -92 26 -150 6 -58 18 -141 27 -185 9 -44
19 -100 23 -125 10 -63 64 -211 107 -295 65 -127 148 -229 253 -309 91 -69
172 -101 375 -146 106 -24 154 -36 275 -71 73 -21 139 -38 228 -59 69 -16 252
-12 313 7 98 31 165 88 242 208 104 163 197 454 246 775 75 486 89 741 90
1609 1 506 4 619 17 698 18 106 15 223 -6 268 -8 16 -32 39 -52 50 -69 39
-309 89 -505 105 -146 12 -187 11 -234 -4z"/>
<path d="M13182 5219 c-35 -10 -119 -45 -187 -79 -147 -72 -185 -108 -185
-174 0 -86 32 -129 134 -187 77 -43 134 -104 163 -175 63 -155 0 -408 -121
-486 -48 -31 -48 -65 -1 -107 82 -71 140 -77 290 -26 118 40 191 82 259 151
115 116 166 250 166 435 0 142 -23 241 -85 364 -72 145 -170 246 -275 286 -60
23 -75 22 -158 -2z"/>
<path d="M16913 5171 c-38 -24 -76 -81 -94 -139 -9 -33 -10 -64 -1 -140 6 -53
14 -245 17 -427 6 -406 34 -834 65 -1015 5 -30 15 -91 21 -135 11 -80 51 -295
69 -370 71 -301 93 -387 146 -570 36 -124 53 -217 53 -299 1 -89 29 -139 106
-190 159 -106 480 -196 695 -195 101 0 125 7 158 49 50 64 55 92 63 350 5 189
11 268 28 345 22 108 61 244 84 297 8 18 33 78 57 133 174 410 172 407 188
392 8 -9 21 -68 32 -143 22 -156 75 -400 121 -564 6 -19 14 -48 18 -65 5 -16
27 -84 49 -150 35 -105 41 -135 45 -237 7 -158 12 -167 157 -242 185 -96 575
-241 677 -253 50 -5 54 -4 87 29 48 48 81 156 67 219 -23 99 -1 329 58 609
100 471 219 952 303 1225 17 55 37 123 45 150 9 28 28 86 43 130 16 44 35 101
44 126 64 196 199 500 311 704 38 68 30 93 -42 150 -90 70 -283 153 -428 184
-27 6 -72 15 -98 21 -91 20 -177 -23 -214 -106 -27 -62 -86 -208 -103 -254 -6
-19 -16 -44 -21 -55 -10 -24 -102 -306 -148 -455 -18 -58 -37 -118 -43 -135
-5 -16 -20 -68 -34 -115 -43 -152 -47 -164 -61 -210 -15 -44 -96 -357 -114
-435 -22 -99 -37 -156 -43 -162 -14 -14 -27 17 -36 88 -46 330 -58 686 -40
1185 l13 368 -34 29 c-80 68 -542 268 -621 269 -52 1 -119 -31 -146 -69 -11
-16 -45 -102 -75 -193 -31 -91 -72 -210 -92 -265 -20 -55 -45 -125 -55 -155
-10 -30 -33 -93 -50 -140 -48 -131 -79 -218 -107 -300 -29 -86 -167 -476 -189
-534 -8 -22 -24 -67 -36 -100 -11 -34 -26 -75 -34 -93 -8 -17 -14 -36 -14 -42
0 -20 -23 -61 -36 -61 -18 0 -18 1 -68 355 -9 61 -20 139 -26 175 -37 249 -46
664 -22 968 12 148 12 166 -3 188 -31 48 -160 126 -328 198 -215 92 -308 112
-364 77z"/>
<path d="M22716 5164 c-50 -18 -74 -40 -92 -84 -18 -43 -12 -68 32 -140 l34
-56 -2 -1429 -3 -1430 -32 -67 c-18 -37 -33 -76 -33 -88 0 -34 41 -63 136 -96
165 -58 227 -73 461 -114 139 -24 229 54 194 170 -23 77 -13 78 96 5 171 -114
259 -143 403 -130 80 7 144 30 173 62 9 11 28 48 42 82 13 34 46 90 72 124 97
124 187 281 269 467 171 390 246 833 195 1150 -39 241 -158 423 -371 567 -154
103 -221 127 -355 128 -83 0 -110 -4 -160 -24 -99 -41 -255 -143 -342 -224
-27 -25 -35 -28 -48 -17 -13 11 -15 55 -15 319 0 332 2 350 58 478 18 39 32
84 32 98 0 85 -214 182 -558 254 -71 15 -138 13 -186 -5z m1345 -1361 c14 -36
4 -289 -16 -403 -21 -117 -35 -185 -51 -250 -7 -30 -20 -82 -27 -115 -13 -52
-55 -190 -77 -250 -4 -11 -17 -51 -30 -90 -38 -117 -119 -316 -161 -395 -54
-102 -99 -161 -141 -184 -42 -23 -69 -18 -126 24 l-42 30 0 558 0 559 29 44
c94 142 373 380 549 469 71 36 80 37 93 3z"/>
<path d="M27203 4909 c-17 -11 -50 -48 -72 -83 -95 -146 -119 -319 -48 -354
60 -30 242 -93 377 -132 41 -12 107 -30 145 -41 39 -11 95 -25 125 -29 68 -11
91 1 119 66 31 69 71 241 71 303 0 50 -3 57 -41 93 -43 41 -97 71 -194 107
-33 13 -69 27 -80 31 -11 5 -31 11 -45 15 -14 3 -58 15 -99 26 -98 25 -214 25
-258 -2z"/>
<path d="M28781 4791 c-97 -17 -116 -102 -51 -227 30 -56 30 -57 30 -229 0
-128 -3 -176 -12 -182 -7 -4 -94 -10 -194 -13 -180 -5 -181 -5 -218 -34 -40
-30 -66 -78 -66 -120 0 -43 58 -137 133 -213 103 -107 134 -122 254 -131 l98
-7 3 -728 2 -727 -31 -88 c-42 -117 -46 -148 -23 -174 51 -55 332 -152 544
-188 72 -11 157 2 204 34 50 32 52 101 7 214 -21 53 -21 57 -19 855 l3 802 95
-1 c52 0 134 -4 181 -9 l87 -8 45 47 c49 49 67 106 53 162 -14 55 -171 229
-260 288 -32 21 -51 26 -103 26 -102 0 -103 1 -103 133 0 125 -3 116 87 226
43 53 53 72 53 103 0 33 -5 41 -37 61 -133 80 -592 158 -762 128z"/>
<path d="M7930 4270 c-59 -20 -105 -62 -116 -106 -5 -18 2 -43 25 -86 l31 -61
0 -1032 0 -1033 -46 -61 c-106 -141 -73 -205 129 -252 20 -5 56 -14 80 -20
193 -48 437 -72 486 -48 54 27 84 53 112 97 24 38 29 57 29 111 0 55 -4 71
-31 113 l-31 48 5 428 c6 504 6 508 112 727 124 260 447 709 496 693 41 -13
42 -25 43 -912 l1 -851 -24 -45 c-13 -25 -40 -70 -60 -100 -73 -110 -78 -145
-25 -188 20 -17 46 -32 58 -35 11 -3 64 -16 116 -29 189 -49 349 -71 481 -66
93 3 110 6 142 28 72 50 95 145 63 263 -11 39 -16 155 -20 472 -7 465 -22 984
-30 1030 -2 17 -10 91 -16 165 -12 149 -25 244 -47 335 -8 33 -17 71 -20 84
-13 54 -130 140 -263 194 -187 75 -355 119 -461 120 -55 1 -77 -4 -131 -31
-122 -60 -257 -225 -344 -422 -46 -105 -68 -123 -77 -63 -7 42 -1 72 37 188
30 92 33 151 10 183 -39 56 -273 128 -537 166 -129 19 -110 19 -177 -4z"/>
<path d="M11800 4258 c-50 -14 -63 -28 -105 -123 -27 -61 -43 -85 -56 -85 -10
0 -21 5 -25 11 -14 24 -214 147 -249 153 -42 8 -143 -2 -151 -15 -3 -5 -13 -9
-22 -9 -26 0 -170 -76 -229 -121 -218 -164 -392 -436 -484 -759 -11 -37 -18
-73 -43 -210 -18 -98 -22 -408 -6 -504 23 -144 29 -175 48 -241 58 -208 169
-400 317 -549 77 -78 194 -163 255 -185 19 -7 44 -17 55 -21 41 -17 83 -23
193 -27 103 -4 115 -2 145 18 37 26 105 94 158 158 21 26 41 41 48 37 14 -9
15 -206 0 -313 -32 -240 -115 -353 -257 -353 -104 0 -160 35 -294 188 -99 111
-155 151 -242 172 -17 5 -56 15 -86 23 -30 8 -94 20 -141 26 -76 11 -94 11
-149 -5 -40 -11 -74 -29 -96 -49 -32 -31 -33 -34 -22 -66 15 -45 318 -348 418
-418 84 -60 190 -111 265 -130 28 -7 62 -17 77 -23 14 -5 93 -10 175 -10 115
0 172 5 253 22 239 50 427 131 554 238 100 86 198 241 236 372 7 25 16 54 21
65 24 58 27 178 37 1405 l7 855 29 50 c66 115 70 126 57 175 -14 51 -50 94
-101 119 -83 42 -333 112 -463 130 -89 12 -80 12 -127 -1z m-216 -529 c15 -11
35 -38 46 -59 30 -59 53 -236 47 -365 -23 -463 -79 -734 -210 -1004 -48 -100
-155 -272 -176 -286 -24 -14 -79 161 -105 330 -19 122 -36 334 -36 434 0 188
62 468 147 661 117 267 204 354 287 289z"/>
<path d="M25484 4240 c-80 -28 -115 -49 -177 -109 -101 -96 -188 -243 -215
-366 -29 -127 -32 -146 -32 -185 0 -46 15 -156 32 -240 25 -116 97 -252 169
-316 76 -68 305 -196 469 -265 81 -33 154 -84 182 -127 14 -20 36 -66 49 -102
20 -57 23 -83 23 -205 0 -126 -2 -145 -24 -188 -25 -53 -55 -73 -93 -63 -39 9
-67 81 -94 240 -13 77 -30 150 -37 161 -10 15 -33 24 -82 33 -38 7 -91 17
-119 22 -71 13 -270 30 -347 30 -107 0 -178 -36 -178 -90 0 -26 73 -150 215
-365 73 -110 194 -234 255 -262 25 -11 90 -30 145 -42 55 -12 134 -30 175 -41
186 -46 242 -49 393 -25 190 31 333 113 405 235 48 82 62 140 62 258 0 253
-82 414 -277 544 -37 25 -183 103 -323 172 -140 70 -265 137 -277 148 -65 61
-92 206 -69 369 29 200 84 331 155 368 20 11 26 10 44 -8 25 -24 35 -81 47
-266 13 -201 20 -267 33 -293 11 -23 137 -91 209 -113 100 -31 189 -52 237
-56 65 -6 126 18 147 58 18 35 17 107 -1 184 -10 40 -15 117 -15 234 0 148 -3
185 -21 245 -50 168 -121 219 -359 257 -89 14 -170 35 -255 66 -167 62 -239
84 -385 118 -8 2 -38 -5 -66 -15z"/>
<path d="M5917 4233 c-79 -12 -295 -192 -388 -323 -80 -113 -174 -309 -209
-435 -20 -71 -60 -245 -71 -310 -18 -100 -18 -537 0 -645 66 -409 225 -704
438 -817 33 -18 70 -33 81 -33 12 0 23 -4 26 -9 3 -5 20 -11 38 -14 18 -3 56
-11 83 -17 51 -11 96 -19 220 -40 39 -6 93 -15 120 -20 77 -13 165 -29 220
-41 28 -6 90 -13 139 -16 149 -9 273 43 393 166 67 68 150 192 193 286 74 160
83 181 90 210 4 17 20 70 34 118 14 49 31 116 36 150 5 34 16 107 25 162 20
122 23 508 6 635 -59 427 -214 721 -452 856 -53 30 -84 39 -184 54 -66 11
-185 24 -265 30 -80 5 -176 17 -215 26 -138 30 -268 40 -358 27z m499 -502
c124 -57 212 -274 246 -610 14 -145 -8 -472 -42 -611 -6 -25 -14 -58 -16 -75
-3 -16 -9 -39 -13 -50 -5 -11 -19 -54 -31 -95 -49 -159 -133 -301 -201 -335
-42 -22 -101 -19 -135 7 -44 34 -60 56 -98 133 -31 63 -43 100 -92 285 -27
101 -63 389 -63 505 -1 143 37 357 92 513 48 135 92 222 141 276 69 77 131 94
212 57z"/>
<path d="M14226 4219 c-181 -73 -351 -304 -401 -544 -19 -91 -19 -240 0 -361
48 -297 175 -433 584 -626 69 -33 150 -71 180 -85 137 -66 201 -200 203 -424
1 -183 -37 -279 -111 -279 -59 0 -93 79 -126 290 -3 19 -8 54 -11 76 -11 72
-36 91 -141 109 -163 27 -335 45 -451 45 -94 0 -119 -3 -153 -20 -62 -32 -67
-60 -25 -145 54 -108 266 -423 332 -492 65 -68 146 -123 180 -123 13 0 25 -4
28 -9 3 -4 22 -11 43 -14 21 -4 58 -11 83 -17 25 -6 63 -15 85 -20 22 -5 58
-14 80 -20 292 -85 618 -21 785 154 91 96 125 192 125 356 -1 288 -112 481
-356 618 -20 11 -153 79 -295 151 -143 72 -272 143 -288 158 -41 38 -66 102
-79 203 -17 138 19 338 88 484 48 102 124 138 149 71 18 -49 36 -189 36 -284
0 -156 18 -281 44 -310 57 -62 365 -171 487 -171 52 0 114 26 135 57 19 30 22
141 4 188 -6 16 -13 119 -16 229 -7 271 -23 348 -90 451 -37 56 -156 104 -309
126 -84 11 -195 37 -209 47 -6 5 -20 12 -31 15 -11 3 -72 24 -135 47 -257 93
-334 106 -424 69z"/>
<path d="M3650 4191 c-173 -48 -330 -168 -449 -343 -32 -48 -131 -216 -131
-224 0 -2 -13 -33 -30 -69 -16 -36 -30 -71 -30 -78 0 -7 -4 -17 -8 -22 -5 -6
-14 -28 -20 -50 -35 -120 -51 -184 -56 -220 -3 -22 -13 -86 -22 -143 -20 -127
-15 -440 10 -572 51 -273 136 -460 271 -596 89 -90 176 -134 431 -220 207 -69
276 -84 425 -91 104 -5 106 -4 160 27 178 105 355 285 519 529 83 125 120 196
127 246 5 37 2 45 -22 67 -35 33 -133 81 -220 109 -22 7 -44 17 -50 21 -5 4
-19 8 -31 8 -13 0 -25 4 -28 9 -3 5 -20 11 -38 14 -18 3 -58 10 -88 16 -30 6
-62 8 -71 6 -18 -6 -55 -90 -93 -216 -33 -105 -76 -171 -180 -274 -155 -153
-245 -164 -305 -38 -13 26 -27 56 -32 65 -5 10 -9 27 -9 37 0 11 -4 22 -9 25
-5 3 -11 20 -14 38 -3 18 -11 56 -17 83 -28 127 -46 323 -31 344 7 11 43 17
128 23 319 21 559 57 729 109 17 5 42 9 57 9 14 0 29 5 32 10 3 6 17 10 29 10
34 0 71 42 100 115 58 146 56 474 -5 716 -5 20 -9 48 -9 62 0 14 -4 29 -10 32
-5 3 -10 16 -10 29 0 122 -332 326 -650 400 -90 22 -267 20 -350 -3z m360
-460 c12 -24 13 -300 0 -391 -23 -167 -33 -184 -130 -232 -55 -27 -99 -40
-166 -49 -116 -16 -126 -12 -118 43 19 141 127 375 244 533 8 11 37 41 64 68
52 51 88 60 106 28z"/>
<path d="M27117 4198 c-59 -16 -63 -35 -30 -141 l28 -92 3 -875 c2 -584 -1
-898 -8 -945 -7 -43 -24 -96 -46 -139 -43 -83 -40 -106 19 -143 70 -44 131
-63 427 -134 25 -6 97 -13 161 -16 98 -5 121 -3 153 12 51 24 76 67 76 130 0
44 -7 60 -50 123 l-50 74 0 846 0 847 50 102 c28 56 50 108 50 116 0 63 -163
140 -435 206 -182 44 -265 51 -348 29z"/>
<path d="M21165 4178 c-134 -45 -203 -83 -288 -158 -190 -169 -363 -518 -406
-820 -6 -41 -15 -104 -21 -140 -23 -154 -2 -460 41 -615 63 -219 162 -393 274
-477 110 -83 348 -171 638 -237 26 -6 84 -11 130 -11 78 0 86 2 152 40 144 85
314 261 462 480 105 155 138 241 109 285 -31 47 -245 133 -439 176 -49 10 -60
10 -71 -2 -15 -16 -45 -94 -75 -193 -28 -92 -84 -176 -179 -268 -99 -97 -168
-127 -222 -98 -67 36 -145 291 -157 512 l-6 117 34 5 c19 3 95 11 169 17 204
17 290 29 430 59 30 7 73 16 95 20 159 32 212 49 237 77 83 92 102 402 43 703
-39 194 -55 228 -139 294 -125 98 -298 178 -485 226 -87 22 -270 26 -326 8z
m323 -613 c4 -238 -13 -328 -72 -376 -42 -36 -157 -70 -241 -72 -91 -2 -86
-11 -62 99 32 150 154 381 257 486 48 50 62 59 86 56 l29 -3 3 -190z"/>
<path d="M30837 4184 c-3 -3 -24 -10 -47 -15 -192 -43 -400 -249 -529 -524
-59 -125 -72 -159 -101 -265 -7 -25 -16 -55 -21 -68 -5 -13 -9 -34 -9 -48 0
-14 -4 -33 -9 -42 -5 -9 -15 -95 -21 -190 -30 -410 41 -730 212 -957 90 -119
191 -179 431 -259 120 -39 164 -52 310 -85 26 -6 84 -11 130 -11 80 0 85 2
157 44 95 56 227 179 329 306 136 169 251 359 251 414 0 36 -38 69 -124 110
-112 54 -371 126 -395 112 -14 -9 -33 -53 -67 -159 -15 -45 -31 -86 -35 -91
-5 -6 -9 -16 -9 -24 0 -45 -176 -239 -252 -278 -105 -54 -152 -20 -208 146
-42 126 -62 228 -67 347 l-6 122 24 5 c13 3 89 10 169 17 161 13 250 23 325
37 124 24 164 32 230 48 39 8 88 20 110 24 107 23 134 56 170 210 20 88 20
307 -1 424 -24 134 -56 277 -70 312 -26 63 -152 157 -303 226 -126 57 -169 73
-289 102 -62 16 -272 23 -285 10z m297 -440 c3 -9 6 -93 6 -187 0 -168 -13
-277 -39 -325 -32 -61 -154 -112 -275 -115 l-81 -2 3 40 c7 92 92 296 178 432
55 85 144 173 176 173 14 0 29 -7 32 -16z"/>
</g>
</svg>
