<?xml version="1.0" standalone="no"?>
<!DOCTYPE svg PUBLIC "-//W3C//DTD SVG 20010904//EN"
 "http://www.w3.org/TR/2001/REC-SVG-20010904/DTD/svg10.dtd">
<svg version="1.0" xmlns="http://www.w3.org/2000/svg"
 width="1000.000000pt" height="563.000000pt" viewBox="0 0 1000.000000 563.000000"
 preserveAspectRatio="xMidYMid meet">
<metadata>
Created by potrace 1.15, written by Peter Selinger 2001-2017
</metadata>
<g transform="translate(0.000000,563.000000) scale(0.100000,-0.100000)"
fill="#ffffff" stroke="none">
<path d="M1911 5383 c-50 -26 -76 -65 -62 -91 14 -27 15 -906 1 -1093 -20
-255 -43 -359 -81 -359 -44 0 -99 197 -99 354 0 92 -5 102 -73 130 -57 23
-178 46 -247 46 -66 0 -113 -18 -130 -49 -12 -24 -13 -77 -1 -99 5 -9 14 -58
20 -107 22 -180 68 -300 148 -386 64 -69 111 -94 228 -123 55 -13 144 -35 199
-50 162 -43 233 -33 307 43 96 100 158 320 188 676 6 66 11 286 11 489 0 228
4 394 11 434 14 79 1 133 -35 150 -39 18 -164 40 -261 47 -76 5 -95 3 -124
-12z"/>
<path d="M7609 5385 c-50 -18 -121 -55 -141 -73 -11 -9 -18 -29 -18 -49 0 -38
31 -75 87 -105 91 -48 96 -237 9 -305 -34 -27 -33 -47 5 -74 40 -28 99 -21
187 22 151 74 205 261 124 433 -66 142 -147 190 -253 151z"/>
<path d="M4998 4905 c-35 -20 -44 -54 -24 -93 14 -27 16 -96 16 -545 l0 -513
-25 -34 c-31 -42 -32 -75 -2 -94 30 -21 176 -55 264 -63 81 -7 123 5 148 43
17 26 20 105 5 120 -7 7 -10 96 -8 260 l3 249 38 80 c71 150 233 372 254 351
5 -4 9 -201 11 -438 l3 -430 -36 -63 c-40 -72 -42 -85 -17 -108 26 -24 172
-56 284 -64 l97 -6 31 32 c30 29 31 35 26 79 -4 26 -10 202 -16 392 -14 525
-32 680 -88 731 -60 54 -272 125 -350 116 -73 -8 -160 -95 -222 -222 -34 -71
-40 -49 -13 56 9 36 14 73 10 82 -22 57 -322 121 -389 82z"/>
<path d="M6937 4909 c-9 -5 -27 -29 -38 -52 -12 -23 -23 -43 -24 -45 -2 -2
-31 15 -65 37 -80 52 -121 54 -211 9 -164 -81 -295 -292 -330 -530 -14 -97 -6
-257 17 -343 65 -240 240 -414 419 -415 56 0 82 14 138 75 l36 40 1 -85 c0
-161 -45 -250 -126 -250 -49 0 -81 19 -146 88 -63 68 -89 84 -166 102 -83 19
-148 17 -179 -6 -15 -11 -29 -26 -31 -32 -5 -16 136 -162 207 -215 78 -57 167
-87 267 -87 156 0 344 69 425 157 48 53 95 147 109 222 6 32 10 261 10 571 l0
517 25 48 c47 88 18 127 -126 168 -103 30 -188 40 -212 26z m-101 -257 c6 -4
20 -23 30 -42 37 -69 17 -397 -33 -555 -17 -56 -93 -207 -122 -244 l-18 -24
-16 49 c-31 97 -41 172 -41 319 -1 172 10 224 79 370 55 117 87 150 121 127z"/>
<path d="M8145 4893 c-43 -22 -112 -91 -141 -140 -40 -68 -57 -156 -51 -253
13 -199 76 -266 380 -405 80 -37 111 -108 105 -237 -2 -62 -7 -82 -24 -98 -40
-41 -65 -9 -84 112 -7 42 -15 81 -19 87 -10 16 -100 31 -228 38 -95 5 -116 3
-137 -11 -15 -9 -26 -25 -26 -34 0 -28 151 -252 198 -294 45 -41 86 -55 250
-89 105 -22 111 -22 190 -7 188 37 270 147 242 322 -24 151 -72 202 -297 314
-87 44 -166 88 -175 99 -30 33 -42 120 -28 202 15 88 57 175 86 179 28 4 33
-18 45 -178 4 -69 8 -126 9 -127 1 -11 117 -58 180 -74 80 -20 123 -15 142 14
10 15 0 240 -13 327 -18 116 -53 146 -196 171 -37 7 -95 22 -128 34 -180 68
-227 76 -280 48z"/>
<path d="M3955 4857 c-100 -68 -176 -178 -225 -327 -39 -114 -50 -191 -50
-338 0 -190 39 -340 119 -462 47 -72 110 -114 203 -134 91 -19 298 -56 359
-63 177 -20 334 185 388 510 15 89 15 304 1 393 -33 195 -117 337 -232 392
-44 22 -255 50 -428 59 -83 4 -86 3 -135 -30z m323 -227 c40 -25 75 -95 98
-199 24 -109 15 -335 -19 -451 -33 -112 -51 -152 -88 -195 -51 -58 -100 -43
-142 41 -44 87 -84 335 -74 451 14 144 70 298 126 346 39 32 55 33 99 7z"/>
<path d="M2873 4862 c-260 -93 -423 -528 -339 -907 32 -144 108 -255 208 -303
92 -44 253 -93 330 -99 63 -5 70 -4 116 26 60 38 163 145 224 231 94 134 100
168 36 201 -63 32 -177 69 -214 69 -31 0 -32 -2 -55 -75 -27 -89 -92 -177
-157 -213 -53 -29 -72 -20 -101 49 -26 60 -54 195 -49 241 l3 33 115 11 c230
23 371 55 400 91 46 58 51 244 11 408 -17 69 -24 84 -58 112 -129 109 -350
168 -470 125z m199 -266 c8 -67 -8 -214 -26 -241 -17 -26 -97 -55 -153 -55
-31 0 -33 2 -27 28 33 134 138 312 184 312 13 0 19 -10 22 -44z"/>
<path d="M1279 2267 c-13 -7 -31 -28 -41 -47 -14 -31 -15 -64 -7 -314 15 -499
38 -673 140 -1053 27 -100 49 -203 49 -227 0 -63 16 -91 69 -125 104 -65 356
-121 426 -95 37 15 52 73 58 224 3 102 11 168 26 223 24 90 153 400 162 389 3
-4 14 -55 23 -114 18 -116 62 -296 95 -392 12 -33 21 -78 21 -101 0 -79 9 -99
55 -128 53 -31 301 -131 368 -148 47 -11 50 -11 75 15 25 24 27 34 29 114 4
186 21 283 123 697 73 296 170 587 252 754 34 69 65 134 69 143 12 25 -32 72
-94 102 -80 38 -183 68 -236 70 -83 2 -94 -16 -187 -289 -64 -186 -152 -485
-188 -634 -14 -57 -28 -106 -30 -109 -25 -25 -48 403 -36 673 l9 200 -31 27
c-39 34 -260 129 -313 136 -57 6 -95 -27 -119 -105 -10 -32 -51 -150 -91 -263
-41 -113 -110 -308 -155 -435 -45 -126 -85 -234 -90 -238 -4 -5 -11 15 -14 45
-4 29 -11 76 -16 103 -28 155 -43 366 -36 525 3 91 9 174 12 186 9 32 -35 76
-118 116 -148 73 -220 94 -259 75z"/>
<path d="M4351 2242 c-36 -36 -38 -53 -11 -97 20 -32 20 -46 18 -806 -3 -658
-5 -779 -18 -807 -11 -24 -12 -37 -4 -50 22 -35 311 -111 369 -96 36 9 60 57
46 95 -5 16 -7 29 -4 29 3 0 33 -17 67 -38 91 -57 117 -65 195 -60 76 4 113
26 125 74 4 14 27 53 52 87 93 126 183 336 221 517 25 121 24 315 -2 395 -31
95 -90 172 -178 232 -101 68 -171 90 -243 74 -52 -12 -184 -89 -213 -124 -7
-9 -20 -17 -28 -17 -12 0 -14 28 -11 188 4 169 6 192 27 235 13 28 20 56 16
67 -14 44 -194 114 -325 126 -67 7 -70 6 -99 -24z m749 -775 c0 -132 -41 -324
-111 -522 -70 -202 -118 -292 -165 -314 -22 -9 -30 -8 -55 10 l-29 20 0 299 0
298 33 44 c68 89 292 259 319 242 4 -3 8 -38 8 -77z"/>
<path d="M6767 2116 c-37 -35 -68 -101 -74 -161 -5 -51 -4 -54 23 -68 50 -26
287 -98 339 -104 l51 -5 17 38 c24 57 37 113 37 161 0 39 -4 45 -40 69 -56 37
-226 94 -281 94 -35 0 -52 -6 -72 -24z"/>
<path d="M7630 2063 c-34 -6 -60 -31 -60 -57 0 -12 9 -39 20 -61 16 -31 20
-59 20 -131 l0 -92 -104 -4 c-93 -3 -108 -6 -129 -27 -14 -12 -27 -31 -30 -41
-8 -30 27 -92 82 -145 49 -47 56 -50 114 -55 l62 -5 3 -380 c3 -368 2 -382
-19 -452 -19 -63 -20 -74 -8 -89 43 -53 302 -118 374 -94 51 17 60 46 35 113
-19 49 -20 77 -20 476 l0 424 99 -6 c97 -6 100 -5 124 19 52 52 46 89 -26 170
-55 64 -105 94 -154 94 l-43 0 0 58 c0 53 4 64 40 113 48 64 48 88 -1 112 -72
35 -309 72 -379 60z"/>
<path d="M5855 1768 c-35 -12 -90 -52 -122 -88 -36 -40 -82 -140 -94 -204 -14
-79 2 -203 37 -273 36 -74 99 -124 250 -199 72 -36 139 -73 148 -82 32 -36 49
-96 50 -177 1 -89 -18 -135 -54 -135 -25 0 -38 30 -55 128 -8 40 -19 79 -25
87 -23 28 -298 56 -349 35 -56 -23 -52 -36 53 -198 84 -129 133 -174 216 -195
203 -51 249 -56 351 -37 105 20 174 70 209 153 19 43 22 64 18 132 -10 169
-64 231 -309 355 -106 54 -165 89 -176 107 -25 38 -24 197 0 270 30 86 75 128
92 86 3 -10 11 -72 16 -138 5 -66 11 -130 14 -142 6 -27 87 -66 183 -89 109
-27 159 -3 148 70 -3 23 -10 102 -14 176 -12 202 -34 233 -192 265 -47 9 -137
34 -200 55 -144 48 -158 50 -195 38z"/>
<path d="M6717 1738 c-16 -12 -17 -18 -5 -58 9 -34 13 -170 13 -555 l0 -510
-23 -43 c-27 -50 -22 -61 37 -92 57 -29 246 -70 321 -70 84 0 116 73 65 148
l-25 37 0 452 0 452 26 56 c14 31 24 64 22 73 -11 59 -376 152 -431 110z"/>
<path d="M3525 1726 c-300 -94 -467 -677 -295 -1031 64 -132 114 -171 295
-230 143 -47 244 -56 301 -27 77 39 214 191 283 313 38 68 39 92 3 117 -35 25
-167 70 -218 74 l-39 3 -29 -85 c-26 -73 -39 -94 -90 -147 -91 -93 -129 -94
-167 -6 -22 53 -49 178 -49 233 0 31 4 40 18 40 57 0 286 33 380 55 129 31
137 39 155 142 12 75 -3 254 -28 340 -19 64 -67 109 -167 157 -131 63 -258 82
-353 52z m194 -344 c-5 -173 -15 -188 -147 -214 -29 -6 -55 -9 -57 -6 -3 2 2
31 11 63 29 114 138 285 181 285 13 0 14 -20 12 -128z"/>
<path d="M8655 1715 c-127 -52 -251 -228 -307 -435 -18 -70 -22 -112 -23 -240
0 -99 5 -175 14 -210 35 -140 105 -255 184 -300 77 -45 259 -100 349 -107 70
-5 80 -3 120 20 79 46 198 177 273 302 45 76 43 102 -10 132 -47 26 -157 61
-205 65 -32 3 -35 1 -53 -47 -39 -103 -58 -137 -99 -181 -45 -49 -85 -74 -118
-74 -40 0 -99 175 -100 293 0 38 3 47 18 47 9 0 73 7 142 15 165 20 341 60
358 82 50 68 52 258 5 436 -19 68 -61 110 -158 158 -146 71 -284 87 -390 44z
m224 -317 c0 -132 -12 -175 -55 -200 -32 -19 -141 -45 -150 -36 -8 9 17 98 44
158 29 63 105 176 124 183 36 15 38 9 37 -105z"/>
</g>
</svg>
